# Made in Blockbench 4.7.2
mtllib Amongus.mtl

o cube
v 0.157427506056512 -0.31249999999999994 -0.3460459945394931
v 0.044194173824159244 -0.3125 0.07654655446197423
v 0.1574275060565119 -0.49999999999999994 -0.3460459945394931
v 0.04419417382415913 -0.5 0.07654655446197423
v 0.22530526625335945 -0.31250000000000006 0.1250751254186968
v 0.3385385984857122 -0.3125 -0.29751742358277045
v 0.22530526625335945 -0.5 0.1250751254186968
v 0.3385385984857122 -0.49999999999999994 -0.2975174235827705
vt 0.546875 0.359375
vt 0.59375 0.359375
vt 0.59375 0.3125
vt 0.546875 0.3125
vt 0.59375 0.265625
vt 0.703125 0.265625
vt 0.703125 0.21875
vt 0.59375 0.21875
vt 0.546875 0.203125
vt 0.59375 0.203125
vt 0.59375 0.15625
vt 0.546875 0.15625
vt 0.59375 0.3125
vt 0.703125 0.3125
vt 0.703125 0.265625
vt 0.59375 0.265625
vt 0.5 0.3125
vt 0.546875 0.3125
vt 0.546875 0.203125
vt 0.5 0.203125
vt 0.546875 0.3125
vt 0.59375 0.3125
vt 0.59375 0.203125
vt 0.546875 0.203125
vn -0.25881904510252063 -9.076848840041769e-17 0.9659258262890684
vn -0.9659258262890684 1.1829179713786698e-16 -0.25881904510252063
vn 0.25881904510252063 9.076848840041769e-17 -0.9659258262890684
vn 0.9659258262890684 -1.1829179713786698e-16 0.25881904510252063
vn 9.076848840041769e-17 1 1.1829179713786698e-16
vn -9.076848840041769e-17 -1 -1.1829179713786698e-16
usemtl m_57621001-0b2b-594d-be9b-d1432c3d285e
f 4/4/1 7/3/1 5/2/1 2/1/1
f 3/8/2 4/7/2 2/6/2 1/5/2
f 8/12/3 3/11/3 1/10/3 6/9/3
f 7/16/4 8/15/4 6/14/4 5/13/4
f 6/20/5 1/19/5 2/18/5 5/17/5
f 7/24/6 4/23/6 3/22/6 8/21/6
o cube
v -0.3385385984857123 -0.3124999999999999 -0.29751742358277045
v -0.22530526625335956 -0.31249999999999994 0.1250751254186968
v -0.3385385984857123 -0.4999999999999999 -0.2975174235827705
v -0.22530526625335956 -0.49999999999999994 0.1250751254186968
v -0.044194173824159244 -0.3125 0.07654655446197423
v -0.157427506056512 -0.31249999999999994 -0.3460459945394931
v -0.0441941738241593 -0.5 0.07654655446197423
v -0.15742750605651207 -0.49999999999999994 -0.3460459945394931
vt 0.8125 0.359375
vt 0.859375 0.359375
vt 0.859375 0.3125
vt 0.8125 0.3125
vt 0.703125 0.265625
vt 0.8125 0.265625
vt 0.8125 0.21875
vt 0.703125 0.21875
vt 0.8125 0.203125
vt 0.859375 0.203125
vt 0.859375 0.15625
vt 0.8125 0.15625
vt 0.703125 0.3125
vt 0.8125 0.3125
vt 0.8125 0.265625
vt 0.703125 0.265625
vt 0.859375 0.3125
vt 0.90625 0.3125
vt 0.90625 0.203125
vt 0.859375 0.203125
vt 0.8125 0.3125
vt 0.859375 0.3125
vt 0.859375 0.203125
vt 0.8125 0.203125
vn 0.25881904510252063 -1.5416087142905295e-16 0.9659258262890684
vn -0.9659258262890684 1.1829179713786696e-16 0.25881904510252063
vn -0.25881904510252063 1.5416087142905295e-16 -0.9659258262890684
vn 0.9659258262890684 -1.1829179713786696e-16 -0.25881904510252063
vn 1.5416087142905295e-16 1 1.1829179713786696e-16
vn -1.5416087142905295e-16 -1 -1.1829179713786696e-16
usemtl m_57621001-0b2b-594d-be9b-d1432c3d285e
f 12/28/7 15/27/7 13/26/7 10/25/7
f 11/32/8 12/31/8 10/30/8 9/29/8
f 16/36/9 11/35/9 9/34/9 14/33/9
f 15/40/10 16/39/10 14/38/10 13/37/10
f 14/44/11 9/43/11 10/42/11 13/41/11
f 15/48/12 12/47/12 11/46/12 16/45/12
o cube
v -0.25 0.25 -0.1875
v -0.25 0.25 0.1875
v -0.25000000000000006 -0.31249999999999994 -0.1875
v -0.25000000000000006 -0.31249999999999994 0.1875
v 0.25 0.25 0.1875
v 0.25 0.25 -0.1875
v 0.25 -0.31250000000000006 0.1875
v 0.25 -0.31250000000000006 -0.1875
vt 0.75 0.609375
vt 0.875 0.609375
vt 0.875 0.46875
vt 0.75 0.46875
vt 0.5 0.609375
vt 0.625 0.609375
vt 0.625 0.46875
vt 0.5 0.46875
vt 0.875 0.609375
vt 1 0.609375
vt 1 0.46875
vt 0.875 0.46875
vt 0.625 0.609375
vt 0.75 0.609375
vt 0.75 0.46875
vt 0.625 0.46875
vt 0.75 0.703125
vt 0.875 0.703125
vt 0.875 0.609375
vt 0.75 0.609375
vt 0.75 0.46875
vt 0.875 0.46875
vt 0.875 0.375
vt 0.75 0.375
vn -1.4997597826618576e-32 -1.2246467991473532e-16 1
vn -1 1.2246467991473532e-16 0
vn 1.4997597826618576e-32 1.2246467991473532e-16 -1
vn 1 -1.2246467991473532e-16 0
vn 1.2246467991473532e-16 1 1.2246467991473532e-16
vn -1.2246467991473532e-16 -1 -1.2246467991473532e-16
usemtl m_57621001-0b2b-594d-be9b-d1432c3d285e
f 20/52/13 23/51/13 21/50/13 18/49/13
f 19/56/14 20/55/14 18/54/14 17/53/14
f 24/60/15 19/59/15 17/58/15 22/57/15
f 23/64/16 24/63/16 22/62/16 21/61/16
f 22/68/17 17/67/17 18/66/17 21/65/17
f 23/72/18 20/71/18 19/70/18 24/69/18
o cube
v -0.1875 0.1875 0.1875
v -0.1875 0.1875 0.375
v -0.1875 -0.25 0.1875
v -0.1875 -0.25 0.375
v 0.1875 0.1874999999999999 0.375
v 0.1875 0.1875 0.1875
v 0.1875 -0.25000000000000006 0.375
v 0.1875 -0.25 0.1875
vt 0.359375 0.578125
vt 0.453125 0.578125
vt 0.453125 0.46875
vt 0.359375 0.46875
vt 0.3125 0.578125
vt 0.359375 0.578125
vt 0.359375 0.46875
vt 0.3125 0.46875
vt 0 1
vt 0 1
vt 0 1
vt 0 1
vt 0.453125 0.578125
vt 0.5 0.578125
vt 0.5 0.46875
vt 0.453125 0.46875
vt 0.359375 0.625
vt 0.453125 0.625
vt 0.453125 0.578125
vt 0.359375 0.578125
vt 0.359375 0.46875
vt 0.453125 0.46875
vt 0.453125 0.421875
vt 0.359375 0.421875
vn -1.4997597826618576e-32 -1.2246467991473532e-16 1
vn -1 1.2246467991473532e-16 0
vn 1.4997597826618576e-32 1.2246467991473532e-16 -1
vn 1 -1.2246467991473532e-16 0
vn 1.2246467991473532e-16 1 1.2246467991473532e-16
vn -1.2246467991473532e-16 -1 -1.2246467991473532e-16
usemtl m_57621001-0b2b-594d-be9b-d1432c3d285e
f 28/76/19 31/75/19 29/74/19 26/73/19
f 27/80/20 28/79/20 26/78/20 25/77/20
f 32/84/21 27/83/21 25/82/21 30/81/21
f 31/88/22 32/87/22 30/86/22 29/85/22
f 30/92/23 25/91/23 26/90/23 29/89/23
f 31/96/24 28/95/24 27/94/24 32/93/24
o cube
v -0.1875 0.1875 -0.25
v -0.1875 0.1875 -0.1875
v -0.1875 -0.062499999999999944 -0.25
v -0.1875 -0.062499999999999944 -0.1875
v 0.1875 0.1875 -0.1875
v 0.1875 0.1875 -0.25
v 0.1875 -0.0625 -0.1875
v 0.1875 -0.0625 -0.25
vt 0 1
vt 0 1
vt 0 1
vt 0 1
vt 0.5625 0.75
vt 0.578125 0.75
vt 0.578125 0.6875
vt 0.5625 0.6875
vt 0.46875 0.75
vt 0.5625 0.75
vt 0.5625 0.6875
vt 0.46875 0.6875
vt 0.453125 0.75
vt 0.46875 0.75
vt 0.46875 0.6875
vt 0.453125 0.6875
vt 0.46875 0.765625
vt 0.5625 0.765625
vt 0.5625 0.75
vt 0.46875 0.75
vt 0.46875 0.6875
vt 0.5625 0.6875
vt 0.5625 0.671875
vt 0.46875 0.671875
vn -1.4997597826618576e-32 -1.2246467991473532e-16 1
vn -1 1.2246467991473532e-16 0
vn 1.4997597826618576e-32 1.2246467991473532e-16 -1
vn 1 -1.2246467991473532e-16 0
vn 1.2246467991473532e-16 1 1.2246467991473532e-16
vn -1.2246467991473532e-16 -1 -1.2246467991473532e-16
usemtl m_57621001-0b2b-594d-be9b-d1432c3d285e
f 36/100/25 39/99/25 37/98/25 34/97/25
f 35/104/26 36/103/26 34/102/26 33/101/26
f 40/108/27 35/107/27 33/106/27 38/105/27
f 39/112/28 40/111/28 38/110/28 37/109/28
f 38/116/29 33/115/29 34/114/29 37/113/29
f 39/120/30 36/119/30 35/118/30 40/117/30
o cube
v -0.1875 0.3125 -0.1875
v -0.1875 0.3125 0.1875
v -0.1875 0.25 -0.1875
v -0.1875 0.25 0.1875
v 0.1875 0.3125 0.1875
v 0.1875 0.3125 -0.1875
v 0.1875 0.25 0.1875
v 0.1875 0.25 -0.1875
vt 0.90625 0.71875
vt 1 0.71875
vt 1 0.703125
vt 0.90625 0.703125
vt 0.71875 0.71875
vt 0.8125 0.71875
vt 0.8125 0.703125
vt 0.71875 0.703125
vt 0.8125 0.71875
vt 0.90625 0.71875
vt 0.90625 0.703125
vt 0.8125 0.703125
vt 0.625 0.71875
vt 0.71875 0.71875
vt 0.71875 0.703125
vt 0.625 0.703125
vt 0.765625 0.8125
vt 0.859375 0.8125
vt 0.859375 0.71875
vt 0.765625 0.71875
vt 0 1
vt 0 1
vt 0 1
vt 0 1
vn -1.4997597826618576e-32 -1.2246467991473532e-16 1
vn -1 1.2246467991473532e-16 0
vn 1.4997597826618576e-32 1.2246467991473532e-16 -1
vn 1 -1.2246467991473532e-16 0
vn 1.2246467991473532e-16 1 1.2246467991473532e-16
vn -1.2246467991473532e-16 -1 -1.2246467991473532e-16
usemtl m_57621001-0b2b-594d-be9b-d1432c3d285e
f 44/124/31 47/123/31 45/122/31 42/121/31
f 43/128/32 44/127/32 42/126/32 41/125/32
f 48/132/33 43/131/33 41/130/33 46/129/33
f 47/136/34 48/135/34 46/134/34 45/133/34
f 46/140/35 41/139/35 42/138/35 45/137/35
f 47/144/36 44/143/36 43/142/36 48/141/36